<svg xmlns="http://www.w3.org/2000/svg" viewBox="0 0 1200 800" role="img" aria-labelledby="title desc">
  <title id="title">Hotel image unavailable</title>
  <desc id="desc">A simple illustrated hotel landscape placeholder</desc>
  <defs>
    <linearGradient id="sky" x1="0" y1="0" x2="0" y2="1"><stop stop-color="#dff3ef"/><stop offset="1" stop-color="#f7f3e8"/></linearGradient>
    <linearGradient id="building" x1="0" y1="0" x2="1" y2="1"><stop stop-color="#176b68"/><stop offset="1" stop-color="#0b4545"/></linearGradient>
  </defs>
  <rect width="1200" height="800" fill="url(#sky)"/>
  <circle cx="955" cy="155" r="72" fill="#f5cd76" opacity=".9"/>
  <path d="M0 560 220 390l175 130 190-210 225 230 170-150 220 170v240H0Z" fill="#91b8ac" opacity=".55"/>
  <rect x="300" y="255" width="600" height="430" rx="18" fill="url(#building)"/>
  <rect x="250" y="640" width="700" height="45" rx="10" fill="#083b3b"/>
  <path d="M475 685V515c0-69 56-125 125-125s125 56 125 125v170" fill="#f5f0df"/>
  <g fill="#bfe2db"><rect x="365" y="330" width="72" height="85" rx="7"/><rect x="763" y="330" width="72" height="85" rx="7"/><rect x="365" y="470" width="72" height="85" rx="7"/><rect x="763" y="470" width="72" height="85" rx="7"/></g>
  <text x="600" y="750" text-anchor="middle" fill="#315b58" font-family="Arial, sans-serif" font-size="24" font-weight="700" letter-spacing="4">STAYEASY</text>
</svg>
